<svg xmlns:osb="http://www.openswatchbook.org/uri/2009/osb" xmlns="http://www.w3.org/2000/svg" xmlns:xlink="http://www.w3.org/1999/xlink" width="630.152" height="587.737" viewBox="0 0 166.728 155.505" version="1.1" id="svg8"><defs id="defs2"><linearGradient id="linearGradient835" osb:paint="solid"><stop offset="0" id="stop833" stop-color="#000" stop-opacity="1"/></linearGradient><linearGradient xlink:href="#linearGradient835" id="linearGradient837" x1="148.203" y1="69.587" x2="152.943" y2="69.587" gradientUnits="userSpaceOnUse" gradientTransform="translate(0 -.535)"/></defs><g id="layer1" transform="translate(-19.067 -62.705)" stroke-linecap="butt"><path d="M136.52 169.277s1.687 16.33 3.162 20.755c1.475 4.425-2.154 14.028 0 14.96 5.351 2.318 3.338-5.49 1.685-24.863-.316-4.004-1.37-2.845.738-14.539 2.62-14.542-6.322.421-6.322.421z" id="path1050-0" fill="#6f654a" fill-opacity="1" stroke="#000" stroke-width=".265" stroke-linejoin="miter" stroke-opacity="1"/><path d="M117.47 170.68s1.686 16.33 3.161 20.754c1.475 4.425-1.31 13.501.843 14.434 5.352 2.317 2.496-4.964.843-24.337-.316-4.003-1.37-2.845.738-14.539 2.62-14.541-6.322.421-6.322.421z" id="path1050" fill="#6f654a" fill-opacity="1" stroke="#000" stroke-width=".265" stroke-linejoin="miter" stroke-opacity="1"/><path d="M61.539 164.1s-6.615 8.085-18.71 14.433c-12.093 6.347 40.359-8.686 40.359-8.686l.935-6.95-14.098-1.47z" id="path1048" fill="#2a3134" fill-opacity="1" stroke="#000" stroke-width=".265" stroke-linejoin="miter" stroke-opacity="1"/><path d="M76.254 150.365s-17.172 12.094-30.736 15.034c-13.564 2.94-24.82 8.82-22.986 10.69 1.222 1.247 23.587-3.407 32.206-6.28 8.62-2.873 30.001-5.346 30.001-5.346z" id="path1031" display="inline" opacity="1" fill="#262f35" fill-opacity="1" stroke="#000" stroke-width=".265" stroke-linejoin="miter" stroke-opacity="1"/><path d="M82.139 163.932s-21.578 20.284-23.587 24.923c-1.086 2.507-.134 4.41 8.152-.869 8.285-5.279-10.892 11.292 22.517-12.695 33.409-23.988-1.537-11.092-1.537-11.092z" id="path1014" display="inline" opacity="1" fill="#454a4b" fill-opacity="1" stroke="#000" stroke-width=".265" stroke-linejoin="miter" stroke-opacity="1"/><path d="M105.638 164.702l1.203-6.749-21.983-13.03-8.285 7.685 4.877 9.354 16.772 6.014z" id="path1012" fill="#455765" fill-opacity="1" stroke="#000" stroke-width=".265" stroke-linejoin="miter" stroke-opacity="1"/><path d="M133.276 136.483s-33.504 20.929-35.575 30.15c-2.488 11.073 33.81-22.384 33.81-22.384z" id="path864-54-4-7-8-65" fill="#394854" fill-opacity="1" stroke="#000" stroke-width=".265" stroke-linejoin="miter" stroke-opacity="1"/><path d="M119.98 128.264s-33.638 23.201-35.71 32.422c-2.487 11.073 33.81-22.384 33.81-22.384z" id="path864-54-4-7-8-7" fill="#394854" fill-opacity="1" stroke="#000" stroke-width=".265" stroke-linejoin="miter" stroke-opacity="1"/><path d="M125.993 133.275s-33.504 20.93-35.575 30.15c-2.488 11.074 41.226-28.397 41.226-28.397z" id="path864-54-4-7-8-0" fill="#394854" fill-opacity="1" stroke="#000" stroke-width=".265" stroke-linejoin="miter" stroke-opacity="1"/><path d="M153.085 107.817s-38.821 22.317-40.892 31.537c-2.488 11.074 53.854-29.266 53.854-29.266z" id="path864-5" fill="#2f3b45" fill-opacity="1" stroke="#000" stroke-width=".265" stroke-linejoin="miter" stroke-opacity="1"/><path d="M138.783 138.648s-28.72 17.94-30.495 25.844c-2.132 9.492 28.982-19.187 28.982-19.187z" id="path864-54-4-7-8-9" fill="#394854" fill-opacity="1" stroke="#000" stroke-width=".227" stroke-linejoin="miter" stroke-opacity="1"/><path d="M159.566 114.231s-38.82 22.317-40.892 31.538c-2.488 11.073 46.638-25.925 46.638-25.925z" id="path864-54" fill="#2f3b45" fill-opacity="1" stroke="#000" stroke-width=".265" stroke-linejoin="miter" stroke-opacity="1"/><path d="M145.098 140.255s-28.72 17.941-30.495 25.845c-2.133 9.492 28.981-19.187 28.981-19.187z" id="path864-54-4-7-8-9-5" fill="#394854" fill-opacity="1" stroke="#000" stroke-width=".227" stroke-linejoin="miter" stroke-opacity="1"/><path d="M163.847 120.653s-38.821 22.317-40.892 31.538c-2.488 11.073 46.638-25.925 46.638-25.925z" id="path864-54-0" fill="#2f3b45" fill-opacity="1" stroke="#000" stroke-width=".265" stroke-linejoin="miter" stroke-opacity="1"/><path d="M143.194 150.938s-11.82 7.384-12.55 10.636c-.878 3.907 11.927-7.896 11.927-7.896z" id="path864-54-4-7-8-9-9" fill="#394854" fill-opacity="1" stroke="#000" stroke-width=".093" stroke-linejoin="miter" stroke-opacity="1"/><path d="M167.255 127.402s-36.483 21.18-38.554 30.402c-2.487 11.073 39.422-24.188 39.422-24.188z" id="path864-54-4" fill="#2f3b45" fill-opacity="1" stroke="#000" stroke-width=".265" stroke-linejoin="miter" stroke-opacity="1"/><path d="M168.123 133.616s-33.504 20.93-35.575 30.15c-2.487 11.073 33.81-22.384 33.81-22.384z" id="path864-54-4-7" fill="#2f3b45" fill-opacity="1" stroke="#000" stroke-width=".265" stroke-linejoin="miter" stroke-opacity="1"/><path d="M137.577 103.296l2.74 3.14s15.702.669 15.969 5.079c.267 4.41 5.011 6.014 2.606 8.686-2.406 2.673 6.08-2.338 7.483 5.68 1.403 8.018-1.537 12.962-1.537 12.962s-1.737 3.742.669 4.143c2.405.4 4.61-10.624 4.944-14.032.334-3.407-3.541-12.027-3.541-12.027l-5.412-9.755-9.823-5.746-9.889 1.536z" id="path843" display="inline" opacity="1" fill="#9ba9b2" fill-opacity="1" stroke="#000" stroke-width=".265" stroke-linejoin="miter" stroke-opacity="1"/><path d="M110.825 120.58s-33.503 20.93-35.575 30.15c-2.487 11.073 33.81-22.383 33.81-22.383z" id="path864-54-4-7-8" fill="#394854" fill-opacity="1" stroke="#000" stroke-width=".265" stroke-linejoin="miter" stroke-opacity="1"/><path d="M129.292 102.16s-37.24 23.792-39.312 33.013c-2.488 11.073 52.274-30.74 52.274-30.74z" id="path864" fill="#2f3b45" fill-opacity="1" stroke="#000" stroke-width=".265" stroke-linejoin="miter" stroke-opacity="1"/><path d="M115.302 125.525s-33.504 20.929-35.575 30.15c-2.488 11.073 33.81-22.384 33.81-22.384z" id="path864-54-4-7-8-6" fill="#394854" fill-opacity="1" stroke="#000" stroke-width=".265" stroke-linejoin="miter" stroke-opacity="1"/><path d="M142.254 104.432s-38.82 22.317-40.892 31.538c-2.487 11.073 53.855-29.266 53.855-29.266z" id="path864-2" fill="#2f3b45" fill-opacity="1" stroke="#000" stroke-width=".265" stroke-linejoin="miter" stroke-opacity="1"/><path d="M129.292 102.16l7.483-4.543s-11.826-15.301-2.539-28.464c9.288-13.163 27.099-1.84 28.197-.735 1.506 1.513 4.81 4.476 4.81 4.476l.535 6.08s-9.087 5.547-8.953 7.284c.134 1.737 7.617 10.315 7.684 13.297l.4 17.372s-7.95-10.69-11.692-10.29c-3.742.401-19.043-1.87-25.925-4.476z" id="path24" fill="#e6e6e6" fill-opacity="1" stroke="#000" stroke-width=".265" stroke-linejoin="miter" stroke-opacity="1"/><path d="M166.487 79.786s2.48-1.489 3.791-1.823c3.968-1.013 10.584.945 12.285-.19 1.7-1.133-1.252-3.456-3.456-4.655-3.17-1.726-11.697.141-13.667-1.96 0 0 4.009 2.872-6.348 3.073-11.795.228 10.915 1.488 7.395 5.555z" id="path22" fill="#d4aa00" stroke="#000" stroke-width=".265" stroke-linejoin="miter" stroke-opacity="1"/><circle id="path26" cx="150.573" cy="69.052" r="2.105" fill="#fff" fill-opacity="1" stroke="url(#linearGradient837)" stroke-width=".319" stroke-linejoin="round" stroke-miterlimit="4" stroke-dasharray="none" stroke-dashoffset="0" paint-order="normal"/><circle id="path839" cx="150.54" cy="69.019" r=".869" fill="#000" fill-opacity="1" stroke="#000" stroke-width=".319" stroke-linejoin="round" stroke-miterlimit="4" stroke-dasharray="none" stroke-dashoffset="0" paint-order="normal"/><path d="M157.02 74.966s26.193.334 25.993 1.938" id="path841" fill="none" stroke="#000" stroke-width=".265" stroke-linejoin="miter" stroke-opacity="1"/><path d="M100.827 163.165s-2.536-3.764-17.506-2.873c-5.612.334 3.943-3.876 3.943-3.876s-12.972 2.483-6.95-10.69c3.208-7.016-5.893 3.599-6.28 6.614-.593 4.618-.869 11.56 6.748 12.228 6.95 1.47 11.827 3.942 11.827 3.942z" id="path944" fill="#485863" fill-opacity="1" stroke="#000" stroke-width=".265" stroke-linejoin="miter" stroke-opacity="1"/><path d="M164.838 138.843s-4.209.936-6.08.468c-2.025-.506-16.704 8.219-10.758 11.626 5.947 3.408-10.156 9.087-10.89 8.018-.736-1.069-26.728.535-26.728.535s-19.911 4.877-19.577 7.817c.334 2.94-7.216 11.894-7.216 11.894s9.822-3.408 11.693-7.35c1.87-3.942 15.053-.199 22.517-1.069 7.832-.913 20.045-1.938 23.252-4.343 3.208-2.406 13.03-8.018 14.5-10.691 1.47-2.673 11.092-9.956 10.557-14.433-.535-4.476-1.27-2.472-1.27-2.472z" id="path860" fill="#708493" fill-opacity="1" stroke="#000" stroke-width=".265" stroke-linejoin="miter" stroke-opacity="1"/><path d="M185.604 200.951c-.948.106-166.324 12.081-166.324 12.081l-.079 5.047h166.46z" id="path1086" fill="#ccc" stroke="#000" stroke-width=".265" stroke-linejoin="miter" stroke-opacity="1"/></g></svg>